<svg width="557" height="133" viewBox="0 0 557 133" fill="none" xmlns="http://www.w3.org/2000/svg">
<path d="M77.35 88.4V91.1C84.95 90.7 91.45 89.55 96.85 87.65C102.35 85.75 106.75 83.75 110.05 81.65C113.45 79.45 115.7 77.85 116.8 76.85V129.8C114.5 130.4 110.9 130.95 106 131.45C101.1 131.95 95.5 132.2 89.2 132.2C81.6 132.2 73.95 131.8 66.25 131C58.55 130.2 51.1 128.85 43.9 126.95C36.7 125.05 30.15 122.4 24.25 119C18.45 115.5 13.6 111.15 9.7 105.95C5.8 100.65 3.25 94.25 2.05 86.75C1.65 84.25 1.3 80.65 1 75.95C0.8 71.25 0.7 66.4 0.7 61.4C0.7 56.4 0.8 51.6 1 47C1.3 42.4 1.65 38.85 2.05 36.35C3.95 25.05 9.8 16.3 19.6 10.1C29.4 3.89999 42 0.899995 57.4 1.1C72.9 0.899995 85.55 3.89999 95.35 10.1C105.15 16.2 110.95 24.8 112.75 35.9C113.25 38.6 113.6 42.35 113.8 47.15C114 51.95 114.1 57.2 114.1 62.9C114.1 64.1 114.05 65.25 113.95 66.35C113.95 67.45 113.85 68.55 113.65 69.65C113.45 70.85 112.3 72.4 110.2 74.3C108.1 76.1 105.3 78 101.8 80C98.4 81.9 94.6 83.65 90.4 85.25C86.2 86.75 81.85 87.8 77.35 88.4ZM54.7 43.1V71.45C54.7 71.85 54.85 72.65 55.15 73.85C55.55 74.95 56.75 75.5 58.75 75.5C60.75 75.5 61.9 74.95 62.2 73.85C62.6 72.65 62.8 71.85 62.8 71.45V43.1C62.8 42.8 62.6 42.05 62.2 40.85C61.9 39.65 60.75 39.05 58.75 39.05C56.75 39.05 55.55 39.65 55.15 40.85C54.85 42.05 54.7 42.8 54.7 43.1ZM122.143 3.49999H170.743V78.8C170.743 79.1 170.893 79.85 171.193 81.05C171.593 82.25 172.793 82.85 174.793 82.85C176.793 82.85 177.943 82.25 178.243 81.05C178.643 79.85 178.843 79.1 178.843 78.8V3.49999H227.443V80.9C227.443 86.4 226.543 91.6 224.743 96.5C222.943 101.3 219.993 105.6 215.893 109.4C211.793 113.1 206.243 116.05 199.243 118.25C192.343 120.35 183.743 121.4 173.443 121.4C164.343 121.4 156.543 120.3 150.043 118.1C143.543 115.9 138.243 112.9 134.143 109.1C130.043 105.3 126.993 101 124.993 96.2C123.093 91.4 122.143 86.4 122.143 81.2V3.49999ZM281.321 119.15L234.071 119V3.49999H281.321V119.15ZM387.409 34.55L352.159 78.5H388.759V119H287.509V87.95L322.759 44H290.209V3.49999H387.409V34.55Z" fill="#FF6D60"/>
<path d="M442.014 119.15L394.764 119V3.49999H442.014V119.15Z" fill="#94D7A2"/>
<path d="M556.203 3.49999V48.05H527.253V119H477.303V48.05H448.203V3.49999H556.203Z" fill="#F7D060"/>
</svg>
